<svg xmlns="http://www.w3.org/2000/svg" width="424" height="272" viewBox="0 0 424 272" fill="none">
  <path d="M88 4C88 1.79086 89.7909 0 92 0H156C158.209 0 160 1.79086 160 4V76C160 78.2091 158.209 80 156 80H92C89.7909 80 88 78.2091 88 76V4Z" fill="#212126" fill-opacity="0.2"/>
  <path d="M0 100C0 97.7909 1.79086 96 4 96H68C70.2091 96 72 97.7909 72 100V172C72 174.209 70.2091 176 68 176H4C1.79086 176 0 174.209 0 172V100Z" fill="#212126" fill-opacity="0.2"/>
  <path d="M176 5C176 2.79086 177.791 1 180 1H244C246.209 1 248 2.79086 248 5V77C248 79.2091 246.209 81 244 81H180C177.791 81 176 79.2091 176 77V5Z" fill="#212126" fill-opacity="0.2"/>
  <path d="M264 5C264 2.79086 265.791 1 268 1H332C334.209 1 336 2.79086 336 5V77C336 79.2091 334.209 81 332 81H268C265.791 81 264 79.2091 264 77V5Z" fill="#212126" fill-opacity="0.2"/>
  <path d="M176 100C176 97.7909 177.791 96 180 96H244C246.209 96 248 97.7909 248 100V172C248 174.209 246.209 176 244 176H180C177.791 176 176 174.209 176 172V100Z" fill="#212126" fill-opacity="0.2"/>
  <path d="M88 100C88 97.7909 89.7909 96 92 96H156C158.209 96 160 97.7909 160 100V172C160 174.209 158.209 176 156 176H92C89.7909 176 88 174.209 88 172V100Z" fill="#212126" fill-opacity="0.2"/>
  <path d="M352 100C352 97.7909 353.791 96 356 96H420C422.209 96 424 97.7909 424 100V172C424 174.209 422.209 176 420 176H356C353.791 176 352 174.209 352 172V100Z" fill="#212126" fill-opacity="0.2"/>
  <path d="M264 196C264 193.791 265.791 192 268 192H332C334.209 192 336 193.791 336 196V268C336 270.209 334.209 272 332 272H268C265.791 272 264 270.209 264 268V196Z" fill="#212126" fill-opacity="0.2"/>
  <path d="M352 196C352 193.791 353.791 192 356 192H420C422.209 192 424 193.791 424 196V268C424 270.209 422.209 272 420 272H356C353.791 272 352 270.209 352 268V196Z" fill="#212126" fill-opacity="0.2"/>
  <path d="M88 196C88 193.791 89.7909 192 92 192H156C158.209 192 160 193.791 160 196V268C160 270.209 158.209 272 156 272H92C89.7909 272 88 270.209 88 268V196Z" fill="#212126" fill-opacity="0.2"/>
  <path d="M0 196C0 193.791 1.79086 192 4 192H68C70.2091 192 72 193.791 72 196V268C72 270.209 70.2091 272 68 272H4C1.79086 272 0 270.209 0 268V196Z" fill="#212126" fill-opacity="0.2"/>
  <path d="M264 100C264 97.7909 265.791 96 268 96H332C334.209 96 336 97.7909 336 100V172C336 174.209 334.209 176 332 176H268C265.791 176 264 174.209 264 172V100Z" fill="#212126" fill-opacity="0.2"/>
  <script xmlns=""/></svg>