<svg width="501" height="501" viewBox="0 0 501 501" fill="none" xmlns="http://www.w3.org/2000/svg">
<path d="M250.506 500.352C388.577 500.352 500.506 388.423 500.506 250.352C500.506 112.28 388.577 0.351562 250.506 0.351562C112.435 0.351562 0.505859 112.28 0.505859 250.352C0.505859 388.423 112.435 500.352 250.506 500.352Z" fill="#2470FF"/>
<path d="M189.307 271.141C181.837 253.88 179.304 237.386 186.265 227.836C191.884 220.126 206.83 209.981 273.234 199.987C288.8 197.647 304.618 195.703 319.008 194.186C322.989 193.752 326.107 190.586 326.461 186.603C326.749 183.324 326.936 181.053 326.957 180.54C329.408 128.633 324.196 50.2691 314.005 45.8137C302.917 40.9624 135.133 174.489 120.523 191.844C105.128 210.13 127.246 269.665 155.458 317.971C166.229 336.393 198.815 400.503 201.89 442.024C203.951 469.85 242.425 456.45 244.104 428.601C246.24 393.18 202.29 300.631 189.087 270.993C189.163 271.048 189.25 271.123 189.326 271.179L189.307 271.141Z" fill="white"/>
<path d="M272.577 222.113C231.847 228.195 214.384 234.074 207.111 237.477C203.847 239.022 201.997 242.56 202.644 246.12C204.142 254.283 206.288 268.874 217.284 284.359C218.339 285.845 219.863 286.897 221.617 287.376C247.766 294.641 307.73 308.649 321.063 306.891C334.359 305.152 353.754 248.998 355.915 222.405C356.314 217.539 352.223 213.465 347.368 213.826C329.111 215.168 300.507 217.942 272.596 222.103L272.577 222.113Z" fill="white"/>
<path d="M265.076 313.232C260.026 312.618 255.119 312.001 250.459 311.401C239.976 310.538 231.058 310.992 226.207 313.812C229.454 322.815 234.295 335.27 240.47 348.04C250.349 368.525 260.581 383.688 270.696 392.987C274.952 395.995 278.652 397.188 281.262 395.718C323.626 371.727 326.341 342.602 320.077 326.103C320.077 326.103 291.383 317.429 265.076 313.232Z" fill="white"/>
</svg>