<svg width="649" height="649" viewBox="0 0 649 649" fill="none" xmlns="http://www.w3.org/2000/svg">
<path d="M139.432 408.48L189.112 357.088L127.352 273.744L48.7123 162.48C20.0048 211.461 4.91313 267.226 5.00038 324C5.00038 421.6 48.7123 508.992 117.64 567.68L217.464 497.152C183.309 475.907 156.169 445.071 139.432 408.496V408.48ZM240.52 138.432L291.912 188.112L375.256 126.352L486.52 47.7123C437.539 19.0048 381.774 3.91313 325 4.00038C227.4 4.00038 140.008 47.7123 81.3203 116.64L151.848 216.464C173.093 182.309 203.928 155.169 240.504 138.432H240.52ZM460.888 290.912L522.648 374.256L601.288 485.52C629.995 436.539 645.087 380.774 645 324C645 226.4 601.288 139.008 532.36 80.3203L432.52 150.848C466.675 172.093 493.815 202.929 510.552 239.504L460.872 290.912H460.888ZM568.68 531.36L498.152 431.536C476.907 465.691 446.072 492.832 409.496 509.568L358.088 459.888L274.744 521.648L163.48 600.288C212.461 628.995 268.226 644.087 325 644C422.6 644 509.992 600.288 568.68 531.36V531.36Z" fill="white"/>
</svg>
