<svg width="649" height="649" viewBox="0 0 649 649" fill="none" xmlns="http://www.w3.org/2000/svg">
<path fill-rule="evenodd" clip-rule="evenodd" d="M145.457 467.255C132.764 459.47 125 445.611 125 430.726V347.614C125 344.433 125.85 341.367 127.437 338.64C132.367 330.117 143.304 327.222 151.804 332.22L338.923 441.576C349.859 447.996 356.603 459.699 356.603 472.423V558.546C356.603 562.465 355.525 566.385 353.486 569.737C347.309 579.849 334.161 583.03 324.074 576.838L145.457 467.255ZM424.377 309.439C435.314 315.858 442.057 327.562 442.057 340.286V515.029C442.057 520.2 439.28 524.971 434.804 527.471L393.832 550.593C393.323 550.877 392.756 551.104 392.19 551.274V454.245C392.19 441.689 385.616 430.044 374.85 423.568L210.512 325.005V215.478C210.512 212.297 211.362 209.229 212.949 206.502C217.879 197.981 228.816 195.084 237.316 200.083L424.377 309.439ZM506.263 180.37C517.256 186.733 524 198.549 524 211.274V466.516C524 471.742 521.11 476.57 516.52 479.07L477.701 500.089V322.392C477.701 309.838 471.129 298.248 460.419 291.771L292.454 190.766V86.8633C292.454 83.682 293.304 80.6144 294.834 77.8875C299.764 69.3662 310.701 66.469 319.202 71.4114L506.263 180.37Z" fill="#00D395"/>
</svg>
