<svg width="640" height="640" viewBox="0 0 640 640" fill="none" xmlns="http://www.w3.org/2000/svg">
<g clip-path="url(#clip0_412_11679)">
<path d="M391.376 160.783H355.145V215.673H391.376V160.783Z" fill="#1682FE"/>
<path d="M287.392 59H251.16V113.89H287.392V59Z" fill="#1682FE"/>
<path d="M183.406 111.346H147.174V166.236H183.406V111.346Z" fill="#60D8A4"/>
<path d="M131.594 320H95V476.673H131.594V320Z" fill="#F4BB3B"/>
<path d="M131.594 163.328H95V320.001H131.594V163.328Z" fill="#60D8A4"/>
<path d="M443.189 213.129H406.957V268.019H443.189V213.129Z" fill="#1682FE"/>
<path d="M443.189 371.982H406.957V426.872H443.189V371.982Z" fill="#FF5A5A"/>
<path d="M391.376 424.328H355.145V479.218H391.376V424.328Z" fill="#FF5A5A"/>
<path d="M287.392 526.109H251.16V580.999H287.392V526.109Z" fill="#FF5A5A"/>
<path d="M183.406 473.764H147.174V528.654H183.406V473.764Z" fill="#F4BB3B"/>
<path d="M545 267.655V163.327H492.826V111.345H388.84V59H284.855V111.345H180.869V163.691H128.695V476.673H180.869V529.018H284.855V581.363H388.84V529.018H492.826V476.673H545V371.982H441.014V424.327H388.84V476.673H284.855V424.327H233.043V215.673H285.217V163.327H389.203V215.673H441.376V268.018H545V267.655Z" fill="#E5E5E5"/>
</g>
<defs>
<clipPath id="clip0_412_11679">
<rect width="450" height="522" fill="white" transform="translate(95 59)"/>
</clipPath>
</defs>
</svg>
