<svg width="81" height="80" viewBox="0 0 81 80" fill="none" xmlns="http://www.w3.org/2000/svg">
<circle cx="40.9786" cy="40" r="40" fill="#6F56FD"/>
<rect x="19.9126" y="49.5069" width="38.9627" height="12.7546" stroke="white" stroke-opacity="0.88" stroke-width="1.51105" stroke-linecap="round" stroke-linejoin="round"/>
<path fill-rule="evenodd" clip-rule="evenodd" d="M49.183 17.9455C49.4859 17.6585 49.9641 17.6715 50.251 17.9744L59.18 27.3994L62.9134 24.0471C63.2238 23.7683 63.7015 23.794 63.9803 24.1044C64.2591 24.4149 64.2334 24.8926 63.9229 25.1714L60.0528 28.6466C59.5197 29.1253 58.7023 29.0923 58.2096 28.5722L57.9839 28.334L54.0904 34.6934C53.4442 35.7488 52.4597 36.5543 51.2973 36.9787L49.5388 37.6207L49.4971 37.636V39.8406H57.4776C57.8496 39.8406 58.1663 40.1115 58.224 40.479L59.6217 49.3898C59.6559 49.608 59.593 49.8302 59.4495 49.998C59.3059 50.1658 59.0961 50.2624 58.8753 50.2624H19.9126C19.6918 50.2624 19.482 50.1658 19.3385 49.998C19.195 49.8302 19.132 49.608 19.1662 49.3898L20.564 40.479C20.6217 40.1115 20.9383 39.8406 21.3104 39.8406H29.2909V33.4325C29.2909 33.0152 29.6292 32.677 30.0465 32.677H34.3505C34.3678 32.6128 34.3911 32.5488 34.4208 32.4856L36.356 28.3672C37.2192 26.53 38.7115 25.0623 40.5629 24.2299L50.053 19.9625L49.1541 19.0136C48.8671 18.7107 48.8801 18.2325 49.183 17.9455ZM29.2909 41.3517H21.9566L20.7959 48.7514H57.992L56.8313 41.3517H49.4971V45.8377C49.4971 46.2549 49.1588 46.5932 48.7416 46.5932H30.0465C29.6292 46.5932 29.2909 46.2549 29.2909 45.8377V41.3517ZM47.9861 40.3363C47.9564 40.4173 47.9402 40.5048 47.9402 40.5961C47.9402 40.6874 47.9564 40.7749 47.9861 40.8559V45.0821H30.802V34.188H43.376L40.3606 37.1029C39.6858 37.7553 39.3749 38.6978 39.5292 39.6236C39.7348 40.8569 40.6853 41.8326 41.9129 42.0702L41.964 42.0801C42.9174 42.2646 43.9001 41.9637 44.5868 41.277L45.962 39.9018C46.5679 39.2959 47.2487 38.7737 47.9861 38.3468V40.3363ZM48.7416 36.2204C48.8013 36.2204 48.8594 36.2273 48.9151 36.2404C48.9502 36.2272 48.9854 36.2141 49.0206 36.2013L50.7791 35.5593C51.6209 35.252 52.3338 34.6687 52.8017 33.9044L56.8804 27.2425L51.0964 21.1501L41.1826 25.608C39.6604 26.2925 38.4334 27.4992 37.7236 29.0098L36.0414 32.5898H44.4006C44.6381 32.5898 44.8476 32.6572 45.0198 32.7695C45.1266 32.8281 45.2177 32.9117 45.2853 33.0125C45.6217 33.4378 45.6486 34.0928 45.1882 34.5379L41.4108 38.1894C41.0933 38.4962 40.9471 38.9396 41.0197 39.3752C41.1215 39.9859 41.5922 40.469 42.2001 40.5867L42.2511 40.5965C42.7117 40.6857 43.1866 40.5403 43.5183 40.2086L44.8936 38.8333C45.8239 37.903 46.9072 37.1437 48.0937 36.587C48.2258 36.3673 48.4665 36.2204 48.7416 36.2204ZM59.2251 23.1242C59.9971 23.1242 60.6229 22.4984 60.6229 21.7264C60.6229 20.9544 59.9971 20.3286 59.2251 20.3286C58.4531 20.3286 57.8273 20.9544 57.8273 21.7264C57.8273 22.4984 58.4531 23.1242 59.2251 23.1242Z" fill="white" fill-opacity="0.88"/>
<rect x="33.3662" y="54.9232" width="12.0557" height="2.09665" rx="0.755525" fill="white" fill-opacity="0.88"/>
</svg>
