<svg width="640" height="640" viewBox="0 0 640 640" fill="none" xmlns="http://www.w3.org/2000/svg">
<rect width="640" height="640" fill="#F8F6F4"/>
<path d="M386.277 220.24C379.221 227.938 363.183 227.938 356.126 220.881C349.069 213.824 346.824 200.673 356.126 192.013C365.428 183.673 379.221 186.56 386.277 192.654C393.334 199.07 393.334 212.541 386.277 220.24Z" fill="#483E5E"/>
<path d="M313.462 165.389C305.764 174.691 302.877 179.823 297.104 194.578C289.726 213.502 282.99 234.672 280.424 247.503C277.858 260.333 282.99 271.559 295.5 279.258C308.651 287.277 322.444 293.692 341.368 300.748C360.293 307.805 373.765 317.749 378.255 328.013C382.746 338.277 381.463 358.164 371.84 377.089C362.218 396.013 348.425 413.655 324.689 430.976C300.953 448.297 284.594 452.467 261.179 457.92C237.764 463.372 245.462 476.523 253.481 479.41C261.5 481.976 279.462 484.863 303.198 483.58C326.934 482.618 350.67 476.524 378.897 462.41C407.124 448.297 434.709 423.919 449.464 391.523C464.218 359.126 469.992 313.258 452.992 284.39C443.048 267.71 437.916 263.541 434.709 252.956C431.501 242.371 433.426 234.352 439.52 226.974C443.048 222.804 450.747 218.634 457.803 213.502C463.577 209.332 470.313 205.483 475.124 202.276C479.936 199.068 481.539 197.464 478.332 195.219C475.124 192.974 468.709 188.804 457.162 184.634C445.615 180.464 443.69 179.823 439.199 179.502C435.03 179.181 429.577 183.03 420.916 189.445C412.256 195.861 408.407 197.144 407.765 204.521C407.124 211.899 405.199 221.2 399.105 229.54C393.01 237.559 385.312 241.729 374.406 242.691C363.821 243.654 349.387 240.446 342.01 232.106C334.953 223.767 332.066 218.955 332.066 207.408C332.066 195.54 336.557 187.2 342.651 181.427C348.746 175.332 348.425 173.408 348.425 170.521C348.425 167.955 347.142 158.653 345.859 154.483C344.576 150.313 340.406 149.672 333.349 151.917C326.934 153.521 321.161 156.087 313.462 165.389Z" fill="#483E5E"/>
<path d="M206.011 390.879C202.483 391.842 199.917 397.615 193.181 409.804C186.445 421.672 179.709 430.332 167.52 443.804C155.331 456.955 147.312 462.729 127.746 474.597L127.105 474.918C107.859 486.465 102.406 489.993 100.803 493.522C99.5196 497.05 100.161 501.861 114.595 504.107C129.029 506.352 140.897 506.673 161.747 492.559C182.596 478.446 198.954 464.653 220.445 454.389C241.936 444.446 248.672 445.087 273.049 438.031C297.106 430.974 319.238 417.181 334.314 400.502C349.39 383.823 357.088 366.822 360.295 357.2C363.503 347.577 363.824 334.747 355.484 328.332C347.465 322.237 343.295 320.313 325.974 313.897C307.37 307.162 301.276 305.237 287.804 294.652C274.974 284.709 275.615 282.142 267.597 281.18C259.578 280.218 253.483 292.086 250.596 297.86C248.672 302.35 248.351 310.369 253.483 317.747C258.615 325.124 264.068 333.464 278.823 341.803C293.578 350.143 300.635 351.426 310.578 353.03C320.842 354.634 324.691 357.2 321.805 361.69C319.239 366.502 313.786 368.747 304.484 368.747C295.182 368.747 282.351 364.577 269.2 356.879C259.898 351.426 253.483 345.652 248.672 339.558C243.86 333.784 241.294 332.822 236.804 332.822C232.634 332.822 228.785 335.388 223.653 343.086C218.521 350.785 214.672 358.804 214.03 363.294C213.388 367.785 213.068 372.596 221.087 378.69C229.106 384.785 236.162 387.992 245.464 389.596C254.766 391.2 261.823 394.087 255.087 400.181C248.351 406.276 240.011 404.993 233.596 403.389C227.181 401.785 217.558 396.653 214.03 394.408C212.105 391.841 209.539 390.238 206.011 390.879Z" fill="#483E5E"/>
<path d="M410.975 176.935C415.787 174.049 421.24 169.879 421.24 167.313C421.24 164.747 418.353 161.218 406.806 154.162C395.258 147.105 379.22 138.765 368.635 137.482C358.05 136.199 362.541 152.879 363.824 159.294C365.107 165.709 365.428 170.841 369.918 171.483C374.409 172.124 377.617 172.445 381.466 173.728C385.315 174.69 390.126 176.935 395.579 180.143C401.032 183.03 405.843 179.822 410.975 176.935Z" fill="#483E5E"/>
</svg>
