<svg width="552" height="552" viewBox="0 0 552 552" fill="none" xmlns="http://www.w3.org/2000/svg">
<rect width="551.293" height="551.294" fill="white"/>
<path d="M239.389 329.898L269.974 360.484C273.104 363.614 278.182 363.607 281.304 360.468L365.902 275.392L416.813 224.48C419.938 221.356 425.003 221.356 428.127 224.48L456.666 253.019C469.163 265.516 469.163 285.777 456.666 298.274L298.274 456.666C285.777 469.163 265.516 469.163 253.019 456.666L94.6274 298.274C82.1306 285.777 82.1306 265.516 94.6274 253.019L122.768 224.879C125.892 221.755 130.957 221.755 134.081 224.879L239.244 330.042L239.389 329.898Z" fill="#202020"/>
<path d="M269.99 190.794L212.163 248.62C209.039 251.745 203.974 251.745 200.85 248.62L155.595 203.366C152.471 200.241 152.471 195.176 155.595 192.052L253.019 94.6274C265.516 82.1306 285.777 82.1306 298.274 94.6274L395.3 191.653C398.424 194.777 398.424 199.843 395.3 202.967L350.045 248.222C346.921 251.346 341.856 251.346 338.731 248.222L281.304 190.794C278.179 187.67 273.114 187.67 269.99 190.794Z" fill="#FF6521"/>
</svg>
