<svg width="640" height="640" viewBox="0 0 640 640" fill="none" xmlns="http://www.w3.org/2000/svg">
<path d="M565.999 214.928C565.999 221.462 564.537 227.835 561.734 234.003C556.329 246.012 545.889 257.284 531.385 267.413C521.513 274.317 509.73 280.689 496.365 286.447C455.738 303.847 400.323 315.284 338.53 317.203V295.544C338.53 275.781 350.881 258.15 369.387 251.49L394.718 242.376C418.363 234.492 433.314 222.974 433.314 210.189C433.314 186.5 382.367 167.303 319.558 167.303C256.749 167.303 205.845 186.5 205.845 210.189C205.845 222.688 220.024 233.921 242.692 241.762L243.587 242.089L269.757 251.496C288.27 258.153 300.627 275.788 300.627 295.555V317.203C238.834 315.284 183.419 303.847 142.751 286.447C129.386 280.689 117.604 274.317 107.731 267.413C93.2272 257.243 82.8277 246.012 77.425 234.003C74.6214 227.835 73.1582 221.462 73.1582 214.928C73.1582 158.275 183.46 112.365 319.558 112.365C455.658 112.365 565.999 158.275 565.999 214.928" fill="#FF7800"/>
<path d="M423.888 366.637V412.824C392.199 419.034 356.855 422.465 319.56 422.465C230.263 422.465 152.058 402.695 108.83 373.082C93.7577 362.749 82.9508 351.19 77.4254 338.895C74.6217 332.727 73.1602 326.355 73.1602 319.861C73.1602 308.179 77.8722 296.906 86.5253 286.45C92.0523 293.148 99.162 299.52 107.733 305.484C127.64 319.411 155.184 331.217 188.052 339.875H188.092C221.122 348.534 259.433 354.049 300.629 355.315V374.492C300.629 385.016 309.113 393.546 319.581 393.546C330.048 393.546 338.532 385.016 338.532 374.492V355.315C361.329 354.609 383.233 352.612 403.845 349.481C414.375 347.881 423.888 355.932 423.888 366.637Z" fill="#FF7800"/>
<path d="M566 319.862C566 326.356 564.538 332.728 561.735 338.895C556.209 351.189 545.403 362.75 530.33 373.083C512.739 385.131 489.379 395.548 461.793 403.676V349.616C461.793 342.099 466.631 335.478 473.728 333.107C496.693 325.431 516.276 316.07 531.427 305.485C540 299.521 547.11 293.149 552.633 286.451C561.288 296.907 566 308.18 566 319.862" fill="#FF7800"/>
<path d="M565.999 425.688C565.999 481.727 455.658 527.188 319.558 527.188C183.46 527.188 73.1582 481.727 73.1582 425.688C73.1582 413.843 78.0747 402.488 87.1338 391.95C120.856 431.896 212.182 460.488 319.558 460.488C356.814 460.488 392.199 457.056 423.886 450.848V469.986C423.886 480.508 432.373 489.038 442.838 489.038H442.841C453.307 489.038 461.792 480.508 461.792 469.986V441.658C503.069 429.527 534.959 412.169 552.023 391.95C561.082 402.488 565.999 413.843 565.999 425.688" fill="#FF7800"/>
</svg>
