<svg width="427" height="427" viewBox="0 0 427 427" fill="none" xmlns="http://www.w3.org/2000/svg">
<g filter="url(#filter0_i_411_11675)">
<path d="M213.5 427C331.413 427 427 331.413 427 213.5C427 95.5872 331.413 0 213.5 0C95.5872 0 0 95.5872 0 213.5C0 331.413 95.5872 427 213.5 427Z" fill="url(#paint0_linear_411_11675)"/>
<g filter="url(#filter1_i_411_11675)">
<path d="M357.614 330.924L224.313 96.0742L91.0056 330.924H357.614ZM130.636 206.16L191.884 96.0742H69.3887L130.636 206.16ZM303.173 299.837H145.45L224.313 160.896L303.173 299.837Z" fill="white"/>
</g>
</g>
<defs>
<filter id="filter0_i_411_11675" x="0" y="0" width="427" height="427" filterUnits="userSpaceOnUse" color-interpolation-filters="sRGB">
<feFlood flood-opacity="0" result="BackgroundImageFix"/>
<feBlend mode="normal" in="SourceGraphic" in2="BackgroundImageFix" result="shape"/>
<feColorMatrix in="SourceAlpha" type="matrix" values="0 0 0 0 0 0 0 0 0 0 0 0 0 0 0 0 0 0 127 0" result="hardAlpha"/>
<feOffset/>
<feGaussianBlur stdDeviation="2"/>
<feComposite in2="hardAlpha" operator="arithmetic" k2="-1" k3="1"/>
<feColorMatrix type="matrix" values="0 0 0 0 0 0 0 0 0 0 0 0 0 0 0 0 0 0 0.1 0"/>
<feBlend mode="normal" in2="shape" result="effect1_innerShadow_411_11675"/>
</filter>
<filter id="filter1_i_411_11675" x="69.3887" y="96.0742" width="288.225" height="234.85" filterUnits="userSpaceOnUse" color-interpolation-filters="sRGB">
<feFlood flood-opacity="0" result="BackgroundImageFix"/>
<feBlend mode="normal" in="SourceGraphic" in2="BackgroundImageFix" result="shape"/>
<feColorMatrix in="SourceAlpha" type="matrix" values="0 0 0 0 0 0 0 0 0 0 0 0 0 0 0 0 0 0 127 0" result="hardAlpha"/>
<feOffset/>
<feGaussianBlur stdDeviation="2"/>
<feComposite in2="hardAlpha" operator="arithmetic" k2="-1" k3="1"/>
<feColorMatrix type="matrix" values="0 0 0 0 0.227451 0 0 0 0 0.282353 0 0 0 0 0.380392 0 0 0 0.25 0"/>
<feBlend mode="normal" in2="shape" result="effect1_innerShadow_411_11675"/>
</filter>
<linearGradient id="paint0_linear_411_11675" x1="103.5" y1="470" x2="373.5" y2="-69.5" gradientUnits="userSpaceOnUse">
<stop stop-color="#1359ED"/>
<stop offset="0.499698" stop-color="#588EFF"/>
<stop offset="1" stop-color="#558CFF"/>
</linearGradient>
</defs>
</svg>
