<?xml version="1.0" encoding="UTF-8"?>
<!DOCTYPE svg PUBLIC "-//W3C//DTD SVG 1.1//EN" "http://www.w3.org/Graphics/SVG/1.1/DTD/svg11.dtd">
<svg xmlns="http://www.w3.org/2000/svg" version="1.1" width="400px" height="400px" style="shape-rendering:geometricPrecision; text-rendering:geometricPrecision; image-rendering:optimizeQuality; fill-rule:evenodd; clip-rule:evenodd" xmlns:xlink="http://www.w3.org/1999/xlink">
<g><path style="opacity:1" fill="#1f1c2e" d="M -0.5,-0.5 C 132.833,-0.5 266.167,-0.5 399.5,-0.5C 399.5,132.833 399.5,266.167 399.5,399.5C 266.167,399.5 132.833,399.5 -0.5,399.5C -0.5,266.167 -0.5,132.833 -0.5,-0.5 Z"/></g>
<g><path style="opacity:1" fill="#ae9fd7" d="M 200.5,66.5 C 215.006,92.8433 229.006,119.51 242.5,146.5C 241.883,146.389 241.383,146.056 241,145.5C 227.667,159.5 214.333,173.5 201,187.5C 200.79,189.058 200.29,190.391 199.5,191.5C 199.168,149.663 199.501,107.997 200.5,66.5 Z"/></g>
<g><path style="opacity:1" fill="#a092c8" d="M 200.5,66.5 C 199.501,107.997 199.168,149.663 199.5,191.5C 199.5,195.833 199.5,200.167 199.5,204.5C 199.5,208.833 199.5,213.167 199.5,217.5C 199.5,219.5 199.5,221.5 199.5,223.5C 199.167,223.5 198.833,223.5 198.5,223.5C 194.962,221.231 191.295,219.231 187.5,217.5C 187.5,174.5 187.5,131.5 187.5,88.5C 190.709,80.4146 194.709,72.7479 199.5,65.5C 200.107,65.6236 200.44,65.9569 200.5,66.5 Z"/></g>
<g><path style="opacity:1" fill="#988abf" d="M 187.5,88.5 C 187.5,131.5 187.5,174.5 187.5,217.5C 183.182,216.008 179.182,214.008 175.5,211.5C 175.5,178.167 175.5,144.833 175.5,111.5C 178.739,103.353 182.739,95.6864 187.5,88.5 Z"/></g>
<g><path style="opacity:1" fill="#8c7eb2" d="M 175.5,111.5 C 175.5,144.833 175.5,178.167 175.5,211.5C 161.5,204.833 147.5,198.167 133.5,191.5C 146.994,164.51 160.994,137.843 175.5,111.5 Z"/></g>
<g><path style="opacity:1" fill="#b2a5d9" d="M 242.5,146.5 C 244.341,148.849 245.674,151.515 246.5,154.5C 242.933,156.557 239.766,159.223 237,162.5C 225,175.167 213,187.833 201,200.5C 200.79,202.058 200.29,203.391 199.5,204.5C 199.5,200.167 199.5,195.833 199.5,191.5C 200.29,190.391 200.79,189.058 201,187.5C 214.333,173.5 227.667,159.5 241,145.5C 241.383,146.056 241.883,146.389 242.5,146.5 Z"/></g>
<g><path style="opacity:1" fill="#b8abdc" d="M 246.5,154.5 C 248.341,156.849 249.674,159.515 250.5,162.5C 233.822,179.345 217.322,196.345 201,213.5C 200.79,215.058 200.29,216.391 199.5,217.5C 199.5,213.167 199.5,208.833 199.5,204.5C 200.29,203.391 200.79,202.058 201,200.5C 213,187.833 225,175.167 237,162.5C 239.766,159.223 242.933,156.557 246.5,154.5 Z"/></g>
<g><path style="opacity:1" fill="#bdb1de" d="M 250.5,162.5 C 252.988,165.466 254.988,168.799 256.5,172.5C 250.925,176.567 245.759,181.234 241,186.5C 232.167,196 223.333,205.5 214.5,215C 214.728,215.399 215.062,215.565 215.5,215.5C 210.693,218.405 205.693,221.072 200.5,223.5C 200.167,223.5 199.833,223.5 199.5,223.5C 199.5,221.5 199.5,219.5 199.5,217.5C 200.29,216.391 200.79,215.058 201,213.5C 217.322,196.345 233.822,179.345 250.5,162.5 Z"/></g>
<g><path style="opacity:1" fill="#c3b9e0" d="M 256.5,172.5 C 259.513,178.527 262.513,184.527 265.5,190.5C 257.12,195.69 248.454,200.357 239.5,204.5C 231.535,208.148 223.535,211.814 215.5,215.5C 215.062,215.565 214.728,215.399 214.5,215C 223.333,205.5 232.167,196 241,186.5C 245.759,181.234 250.925,176.567 256.5,172.5 Z"/></g>
<g><path style="opacity:1" fill="#b6aada" d="M 265.5,190.5 C 276.751,211.335 287.751,232.335 298.5,253.5C 298.631,254.239 298.464,254.906 298,255.5C 279.201,239.036 260.701,222.203 242.5,205C 241.552,204.517 240.552,204.351 239.5,204.5C 248.454,200.357 257.12,195.69 265.5,190.5 Z"/></g>
<g><path style="opacity:1" fill="#b2a4d9" d="M 239.5,204.5 C 240.552,204.351 241.552,204.517 242.5,205C 260.701,222.203 279.201,239.036 298,255.5C 298.464,254.906 298.631,254.239 298.5,253.5C 302.751,261.001 306.751,268.668 310.5,276.5C 310.44,277.043 310.107,277.376 309.5,277.5C 272.952,259.725 236.618,241.725 200.5,223.5C 205.693,221.072 210.693,218.405 215.5,215.5C 223.535,211.814 231.535,208.148 239.5,204.5 Z"/></g>
<g><path style="opacity:1" fill="#7e71a1" d="M 133.5,191.5 C 147.5,198.167 161.5,204.833 175.5,211.5C 179.182,214.008 183.182,216.008 187.5,217.5C 191.295,219.231 194.962,221.231 198.5,223.5C 187.833,229.167 177.167,234.833 166.5,240.5C 165.391,240.557 164.391,240.89 163.5,241.5C 147.911,235.079 131.911,229.412 115.5,224.5C 121.262,213.305 127.262,202.305 133.5,191.5 Z"/></g>
<g><path style="opacity:1" fill="#9c8dbe" d="M 199.5,223.5 C 199.833,223.5 200.167,223.5 200.5,223.5C 236.618,241.725 272.952,259.725 309.5,277.5C 310.107,277.376 310.44,277.043 310.5,276.5C 311.791,277.542 311.791,278.708 310.5,280C 303.447,283.527 296.447,287.027 289.5,290.5C 260.048,270.888 230.715,251.055 201.5,231C 200.891,229.052 200.224,227.218 199.5,225.5C 199.5,224.833 199.5,224.167 199.5,223.5 Z"/></g>
<g><path style="opacity:1" fill="#8679ac" d="M 115.5,224.5 C 131.911,229.412 147.911,235.079 163.5,241.5C 138.86,253.486 114.193,265.486 89.5,277.5C 88.8933,277.376 88.56,277.043 88.5,276.5C 97.4711,259.184 106.471,241.85 115.5,224.5 Z"/></g>
<g><path style="opacity:1" fill="#9485b5" d="M 199.5,225.5 C 200.224,227.218 200.891,229.052 201.5,231C 230.715,251.055 260.048,270.888 289.5,290.5C 284.484,293.674 279.151,296.341 273.5,298.5C 266.269,294.878 259.269,290.711 252.5,286C 234.63,273.605 216.963,261.105 199.5,248.5C 199.5,241.5 199.5,234.5 199.5,227.5C 199.5,226.833 199.5,226.167 199.5,225.5 Z"/></g>
<g><path style="opacity:1" fill="#716591" d="M 198.5,223.5 C 198.833,223.5 199.167,223.5 199.5,223.5C 199.5,224.167 199.5,224.833 199.5,225.5C 199.5,226.167 199.5,226.833 199.5,227.5C 184.339,255.82 169.673,284.486 155.5,313.5C 147.849,310.341 140.516,306.675 133.5,302.5C 134.675,302.719 135.675,302.386 136.5,301.5C 146.783,281.268 156.783,260.934 166.5,240.5C 177.167,234.833 187.833,229.167 198.5,223.5 Z"/></g>
<g><path style="opacity:1" fill="#6d608a" d="M 199.5,227.5 C 199.5,234.5 199.5,241.5 199.5,248.5C 199.5,256.5 199.5,264.5 199.5,272.5C 199.109,279.921 199.609,287.254 201,294.5C 212.464,302.81 224.298,310.477 236.5,317.5C 224.384,324.059 212.051,330.392 199.5,336.5C 184.772,328.804 170.105,321.137 155.5,313.5C 169.673,284.486 184.339,255.82 199.5,227.5 Z"/></g>
<g><path style="opacity:1" fill="#786c9a" d="M 166.5,240.5 C 156.783,260.934 146.783,281.268 136.5,301.5C 135.675,302.386 134.675,302.719 133.5,302.5C 118.553,295.027 103.553,287.527 88.5,280C 87.2089,278.708 87.2089,277.542 88.5,276.5C 88.56,277.043 88.8933,277.376 89.5,277.5C 114.193,265.486 138.86,253.486 163.5,241.5C 164.391,240.89 165.391,240.557 166.5,240.5 Z"/></g>
<g><path style="opacity:1" fill="#8878a5" d="M 199.5,248.5 C 216.963,261.105 234.63,273.605 252.5,286C 259.269,290.711 266.269,294.878 273.5,298.5C 266.484,302.675 259.151,306.341 251.5,309.5C 235.066,298.915 218.733,288.081 202.5,277C 201.219,275.591 200.219,274.091 199.5,272.5C 199.5,264.5 199.5,256.5 199.5,248.5 Z"/></g>
<g><path style="opacity:1" fill="#7f6e9a" d="M 199.5,272.5 C 200.219,274.091 201.219,275.591 202.5,277C 218.733,288.081 235.066,298.915 251.5,309.5C 246.693,312.405 241.693,315.072 236.5,317.5C 224.298,310.477 212.464,302.81 201,294.5C 199.609,287.254 199.109,279.921 199.5,272.5 Z"/></g>
</svg>
