<svg width="100" height="100" viewBox="20 0 64 64" fill="none" xmlns="http://www.w3.org/2000/svg">
<path d="M72.8564 37.9017L72.792 37.9694C72.7619 38.0005 72.7314 38.0314 72.7006 38.0621L55.0382 55.6961C51.9614 58.768 46.9729 58.768 43.8961 55.6961L39.0186 50.8267C38.6728 50.4828 38.6721 49.9236 39.0163 49.5782C39.1176 49.4766 39.2421 49.4012 39.379 49.3584C44.6069 47.7446 48.8548 45.8817 52.1225 43.7699C59.9047 38.7403 66.816 36.7843 72.8564 37.9017ZM69.1535 23.3958C75.6746 25.4507 74.9135 30.2479 75 32.1391C67.8584 28.3943 59.2669 29.7669 49.2254 36.2566C41.741 41.0937 35.4716 43.088 30.4173 42.2395C25.363 41.391 24.226 35.2183 24 33.578C29.5538 36.3861 36.9966 34.7744 46.3283 28.7434C55.024 23.1235 62.6324 21.3409 69.1535 23.3958ZM55.0382 9.30389L59.6212 13.8789C59.9664 14.2233 59.9669 14.7825 59.6225 15.1278C59.4996 15.251 59.3431 15.3351 59.1726 15.3694C52.538 16.706 47.232 18.6596 43.2546 21.2302C36.4389 25.6351 30.6308 27.6825 25.8303 27.3724L25.8308 27.3711L43.8961 9.30389C46.9729 6.23204 51.9614 6.23204 55.0382 9.30389Z" fill="url(#paint0_linear_1169_22468)"/>
<defs>
<linearGradient id="paint0_linear_1169_22468" x1="49.5" y1="7" x2="49" y2="93" gradientUnits="userSpaceOnUse">
<stop stop-color="#3068EF"/>
<stop offset="1" stop-color="#1322AC"/>
</linearGradient>
</defs>
</svg>
