<svg width="640" height="640" viewBox="0 0 640 640" fill="none" xmlns="http://www.w3.org/2000/svg">
<rect width="640" height="640" fill="#FBF1F7"/>
<g clip-path="url(#clip0_411_11650)">
<path d="M248.04 167.932C243.647 167.307 243.438 167.098 245.53 166.89C249.504 166.264 258.706 167.098 265.19 168.557C280.249 172.101 293.844 181.274 308.275 197.325L312.04 201.703L317.477 200.869C340.693 197.117 364.536 200.035 384.406 209.208C389.844 211.709 398.419 216.712 399.464 217.963C399.883 218.38 400.51 221.09 400.928 223.8C402.393 233.598 401.765 240.894 398.628 246.522C396.955 249.649 396.955 250.483 398 253.193C398.837 255.278 401.347 256.737 403.647 256.737C408.667 256.737 413.896 248.815 416.406 237.767L417.451 233.389L419.334 235.474C430 247.356 438.366 263.825 439.621 275.499L440.04 278.626L438.157 275.916C435.02 271.121 432.092 267.994 428.118 265.284C421.007 260.489 413.478 259.03 393.608 257.988C375.621 256.946 365.373 255.486 355.334 252.151C338.183 246.522 329.399 239.226 309.111 212.335C300.118 200.452 294.471 193.99 288.824 188.57C276.484 176.688 264.144 170.434 248.04 167.932Z" fill="#FF007A"/>
<path d="M403.857 194.407C404.275 186.486 405.321 181.274 407.622 176.479C408.458 174.603 409.295 172.936 409.504 172.936C409.713 172.936 409.295 174.395 408.667 176.062C406.994 180.649 406.785 187.111 407.831 194.407C409.295 203.788 409.922 205.039 419.961 215.253C424.563 220.048 430.001 226.093 432.092 228.595L435.648 233.181L432.092 229.846C427.7 225.677 417.661 217.755 415.36 216.713C413.896 215.879 413.687 215.879 412.641 216.921C411.805 217.755 411.595 219.006 411.595 225.051C411.386 234.432 410.131 240.269 406.994 246.314C405.321 249.441 405.112 248.816 406.576 245.272C407.622 242.562 407.831 241.311 407.831 232.347C407.831 214.211 405.739 209.833 392.981 202.537C389.844 200.661 384.406 197.951 381.269 196.492C377.922 195.033 375.412 193.782 375.622 193.782C376.04 193.365 388.38 196.909 393.19 198.993C400.51 201.912 401.765 202.12 402.602 201.912C403.229 201.286 403.648 199.619 403.857 194.407Z" fill="#FF007A"/>
<path d="M256.614 225.467C247.83 213.376 242.183 194.614 243.438 180.647L243.856 176.27L245.948 176.686C249.712 177.312 256.196 179.813 259.333 181.69C267.699 186.693 271.464 193.572 275.019 210.666C276.065 215.669 277.529 221.506 278.157 223.382C279.202 226.509 283.176 233.805 286.523 238.391C288.823 241.727 287.359 243.394 282.131 242.977C274.183 242.144 263.516 234.847 256.614 225.467Z" fill="#FF007A"/>
<path d="M393.189 316.148C351.777 299.471 337.137 285.087 337.137 260.697C337.137 257.153 337.346 254.234 337.346 254.234C337.555 254.234 339.019 255.485 340.901 256.944C349.267 263.615 358.679 266.534 384.823 270.286C400.091 272.579 408.875 274.247 416.823 276.957C442.13 285.295 457.816 302.389 461.581 325.528C462.627 332.199 461.999 344.915 460.326 351.586C458.862 356.798 454.679 366.387 453.633 366.596C453.424 366.596 453.006 365.553 453.006 363.886C452.588 355.13 448.196 346.792 440.875 340.329C432.091 332.825 420.797 327.196 393.189 316.148Z" fill="#FF007A"/>
<path d="M363.908 323.027C363.49 319.9 362.444 315.939 361.817 314.271L360.771 311.145L362.653 313.438C365.372 316.565 367.464 320.317 369.346 325.528C370.81 329.489 370.81 330.74 370.81 337.202C370.81 343.456 370.601 344.915 369.346 348.459C367.255 354.088 364.745 358.049 360.562 362.426C353.032 370.139 343.202 374.309 329.189 376.185C326.679 376.393 319.568 377.019 313.294 377.436C297.607 378.269 287.15 379.937 277.738 383.272C276.483 383.689 275.228 384.106 275.019 383.898C274.601 383.481 281.085 379.729 286.313 377.227C293.634 373.683 301.163 371.807 317.686 368.889C325.843 367.638 334.209 365.97 336.3 365.136C357.006 358.674 367.255 342.622 363.908 323.027Z" fill="#FF007A"/>
<path d="M382.941 356.59C377.503 344.708 376.248 333.451 379.176 322.819C379.594 321.777 380.013 320.734 380.431 320.734C380.849 320.734 382.104 321.36 383.359 322.194C385.869 323.861 391.098 326.78 404.483 334.076C421.424 343.248 431.045 350.336 437.738 358.466C443.594 365.554 447.15 373.684 448.823 383.69C449.869 389.318 449.241 402.869 447.777 408.497C443.176 426.216 432.718 440.392 417.45 448.522C415.15 449.773 413.267 450.606 413.058 450.606C412.849 450.606 413.686 448.522 414.941 446.02C419.96 435.389 420.588 425.174 416.823 413.709C414.522 406.621 409.712 398.074 400.091 383.69C388.588 367.013 385.869 362.635 382.941 356.59Z" fill="#FF007A"/>
<path d="M227.125 420.379C242.602 407.454 261.634 398.282 279.203 395.363C286.732 394.113 299.281 394.53 306.183 396.406C317.268 399.324 327.308 405.578 332.536 413.291C337.556 420.796 339.857 427.258 342.157 441.642C342.994 447.271 344.04 453.107 344.249 454.358C345.922 461.863 349.268 467.7 353.451 470.827C359.935 475.621 371.229 475.83 382.314 471.661C384.196 471.035 385.87 470.41 385.87 470.618C386.288 471.035 380.641 474.788 376.876 476.664C371.647 479.374 367.464 480.208 361.817 480.208C351.778 480.208 343.203 474.996 336.301 464.573C334.837 462.488 331.909 456.443 329.399 450.814C322.079 433.929 318.314 428.926 309.739 423.297C302.21 418.503 292.589 417.46 285.268 421.004C275.647 425.59 273.138 437.89 279.83 445.394C282.549 448.521 287.569 451.023 291.752 451.648C299.491 452.691 306.183 446.645 306.183 438.932C306.183 433.929 304.301 431.01 299.281 428.717C292.589 425.799 285.268 429.134 285.478 435.597C285.478 438.307 286.732 439.974 289.451 441.225C291.125 442.059 291.125 442.059 289.87 441.851C283.804 440.6 282.34 433.095 287.151 428.3C293.007 422.464 305.347 424.965 309.53 433.095C311.203 436.43 311.412 443.101 309.948 447.271C306.393 456.443 296.353 461.238 286.105 458.527C279.203 456.651 276.275 454.775 267.909 446.228C253.268 431.219 247.621 428.3 226.706 425.174L222.732 424.548L227.125 420.379Z" fill="#FF007A"/>
<path fill-rule="evenodd" clip-rule="evenodd" d="M117.111 84.9639C165.843 143.959 240.928 235.682 244.692 240.685C247.83 244.854 246.575 248.815 241.346 251.734C238.418 253.401 232.352 255.069 229.424 255.069C226.078 255.069 222.104 253.401 219.385 250.691C217.503 248.815 209.346 236.933 190.941 208.374C176.928 186.485 165.006 168.349 164.797 168.14C163.96 167.723 163.96 167.723 189.477 213.168C205.581 241.728 210.81 251.942 210.81 253.193C210.81 255.903 209.973 257.362 206.627 261.115C200.98 267.368 198.47 274.456 196.588 289.257C194.496 305.725 188.849 317.399 172.745 337.203C163.333 348.877 161.869 350.962 159.568 355.756C156.64 361.593 155.803 364.929 155.385 372.433C154.967 380.355 155.803 385.358 158.104 392.863C160.196 399.534 162.496 403.911 168.143 412.458C172.954 419.963 175.882 425.591 175.882 427.676C175.882 429.344 176.3 429.344 183.83 427.676C201.817 423.507 216.666 416.419 224.823 407.664C229.843 402.244 231.098 399.325 231.098 391.82C231.098 387.026 230.888 385.983 229.634 383.065C227.542 378.479 223.568 374.727 214.993 368.89C203.699 361.176 198.888 354.923 197.634 346.584C196.588 339.496 197.843 334.702 204.117 321.569C210.601 308.019 212.274 302.39 213.32 288.632C213.947 279.876 214.993 276.332 217.503 273.622C220.222 270.704 222.522 269.662 229.006 268.828C239.673 267.368 246.575 264.658 252.013 259.447C256.823 255.069 258.915 250.691 259.124 244.229L259.333 239.434L256.614 236.516C246.784 225.259 110.627 76 110 76C109.79 76 113.137 79.9608 117.111 84.9639ZM181.32 381.397C183.62 377.437 182.366 372.433 178.601 369.932C175.045 367.639 169.607 368.681 169.607 371.808C169.607 372.642 170.026 373.476 171.281 373.893C173.163 374.935 173.372 375.977 171.908 378.27C170.444 380.563 170.444 382.648 172.326 384.107C175.254 386.4 179.228 385.15 181.32 381.397Z" fill="#FF007A"/>
<path fill-rule="evenodd" clip-rule="evenodd" d="M266.025 271.746C261.006 273.205 256.195 278.625 254.731 284.045C253.894 287.381 254.313 293.426 255.777 295.302C258.077 298.221 260.169 299.054 266.025 299.054C277.528 299.054 287.359 294.051 288.404 288.006C289.45 283.003 285.058 276.124 278.993 272.997C275.855 271.329 269.372 270.704 266.025 271.746ZM279.411 282.169C281.084 279.667 280.457 276.957 277.319 275.081C271.672 271.537 263.097 274.456 263.097 279.876C263.097 282.586 267.489 285.504 271.672 285.504C274.391 285.504 278.156 283.837 279.411 282.169Z" fill="#FF007A"/>
</g>
<defs>
<clipPath id="clip0_411_11650">
<rect width="352" height="404" fill="white" transform="translate(110 76)"/>
</clipPath>
</defs>
</svg>
