<svg width="748" height="748" viewBox="0 0 748 748" fill="none" xmlns="http://www.w3.org/2000/svg">
<rect x="0.666992" y="0.400391" width="746.768" height="746.768" rx="373.384" fill="black"/>
<path fill-rule="evenodd" clip-rule="evenodd" d="M247.006 470.453L421.304 221.53C436.765 199.448 467.2 194.082 489.281 209.543C511.362 225.005 516.728 255.439 501.267 277.52L326.969 526.444C311.507 548.525 281.073 553.892 258.992 538.43C236.911 522.969 231.544 492.534 247.006 470.453ZM524.787 158.835C574.873 193.906 587.046 262.94 551.975 313.026L377.677 561.95C342.606 612.037 273.572 624.209 223.486 589.138C173.399 554.067 161.227 485.034 196.298 434.947L370.596 186.023C405.667 135.937 474.701 123.764 524.787 158.835Z" fill="white"/>
</svg>
