<svg width="136" height="20" viewBox="0 0 136 20" fill="none" xmlns="http://www.w3.org/2000/svg">
<g clip-path="url(#clip0_2973_59)">
<mask id="mask0_2973_59" style="mask-type:luminance" maskUnits="userSpaceOnUse" x="0" y="0" width="136" height="20">
<path d="M136 0H0V20H136V0Z" fill="white"/>
</mask>
<g mask="url(#mask0_2973_59)">
<path d="M19.475 4.05637V0.0429688H7.82462V3.6842C7.82462 3.86667 7.67998 4.01513 7.5022 4.01513H0.0844727V8.02853H7.5022C7.67998 8.02853 7.82462 8.17699 7.82462 8.35946V11.6285C7.82462 11.811 7.67998 11.9595 7.5022 11.9595H0.0844727V15.9729H7.5022C7.67998 15.9729 7.82462 16.1213 7.82462 16.3038V19.945H19.475V15.9316H8.18722C8.00944 15.9316 7.8648 15.7832 7.8648 15.6007V12.3316C7.8648 12.1492 8.00944 12.0007 8.18722 12.0007H19.475V7.98729H8.16713C7.98935 7.98729 7.84471 7.83884 7.84471 7.65637V4.38729C7.84471 4.20482 7.98935 4.05637 8.16713 4.05637H19.475Z" fill="white"/>
<path d="M43.0137 10.8154H30.378C30.609 12.6897 32.184 13.6587 35.2264 13.6587C38.2688 13.6587 39.4862 12.9268 39.7172 11.9577H42.9505C42.8239 14.4134 39.9904 15.9639 35.1018 15.9639C30.2133 15.9639 27.1899 13.8103 27.1899 9.97623C27.1899 6.14221 30.0234 3.94531 35.1018 3.94531C40.1802 3.94531 43.0137 6.18551 43.0137 9.91128V10.8165V10.8154ZM30.378 9.02778H39.7805C39.4862 7.1752 37.9755 6.24943 35.143 6.24943C32.3105 6.24943 30.6713 7.24015 30.378 9.02778Z" fill="white"/>
<path d="M59.6243 9.5854V15.638H56.371V10.2968C56.371 7.84005 54.9648 6.67716 52.5943 6.67716C49.7186 6.67716 48.1869 8.33592 48.1869 10.2524V15.638H44.9536V4.30705H48.0804V6.6988C49.1933 4.97509 51.1871 3.98438 53.7062 3.98438C57.1886 3.98438 59.6243 6.11633 59.6243 9.58437V9.5854Z" fill="white"/>
<path d="M66.0322 13.055H74.5116V15.6395H61.457V13.1622L69.8943 6.89416H61.5836V4.30859H74.364V6.85086L66.0312 13.055H66.0322Z" fill="white"/>
<path d="M88.161 4.30859H91.6875L84.3421 17.5993C83.3969 19.388 82.6416 19.9478 80.69 19.9478H77.2277V17.4488H80.1657C81.1109 17.4488 81.382 17.2767 81.823 16.4364L82.286 15.5962L75.4438 4.30859H79.0528L83.9012 12.4725L88.161 4.30859Z" fill="white"/>
<path d="M118.372 9.5854V15.638H115.139V10.2968C115.139 7.84005 113.775 6.67716 111.572 6.67716C108.739 6.67716 107.374 8.35757 107.374 10.2524V15.638H104.122V10.2968C104.122 7.84005 102.799 6.67716 100.554 6.67716C97.8248 6.67716 96.3563 8.35757 96.3563 10.2524V15.638H93.123V4.30705H96.2498V6.6988C97.3216 4.97509 99.2511 3.98438 101.666 3.98438C104.08 3.98438 105.926 5.0823 106.807 6.95653C107.877 5.0823 109.955 3.98438 112.662 3.98438C115.957 3.98438 118.371 6.11633 118.371 9.58437L118.372 9.5854Z" fill="white"/>
<path d="M135.996 10.8154H123.36C123.591 12.6896 125.165 13.6587 128.209 13.6587C131.252 13.6587 132.469 12.9267 132.7 11.9576H135.933C135.806 14.4133 132.973 15.9638 128.084 15.9638C123.196 15.9638 120.172 13.8102 120.172 9.97624C120.172 6.14222 123.006 3.94531 128.084 3.94531C133.163 3.94531 135.996 6.18552 135.996 9.91129V10.8164V10.8154ZM123.36 9.02778H132.763C132.469 7.17521 130.958 6.24943 128.125 6.24943C125.293 6.24943 123.654 7.24016 123.36 9.02778Z" fill="white"/>
</g>
</g>
<defs>
<clipPath id="clip0_2973_59">
<rect width="136" height="20" fill="white"/>
</clipPath>
</defs>
</svg>
