<svg width="2709" height="1042" viewBox="0 0 2709 1042" fill="none" xmlns="http://www.w3.org/2000/svg">
<path d="M2013.6 137.617C2022.23 137.617 2029.23 144.614 2029.23 153.246V949.782C2029.23 958.413 2022.23 965.41 2013.6 965.41H1872.98C1864.35 965.41 1857.35 958.413 1857.35 949.782V153.246C1857.35 144.614 1864.35 137.617 1872.98 137.617H2013.6Z" fill="white"/>
<path d="M1772.86 344.578C1781.49 344.578 1788.49 351.575 1788.49 360.206V949.782C1788.49 958.414 1781.49 965.411 1772.86 965.411H1632.24C1623.61 965.411 1616.61 958.414 1616.61 949.782V360.206C1616.61 351.575 1623.61 344.578 1632.24 344.578H1772.86Z" fill="white"/>
<path d="M2202.08 344.578C2144.54 344.578 2097.89 391.226 2097.89 448.77V949.782C2097.89 958.414 2104.88 965.411 2113.52 965.411H2254.14C2262.77 965.411 2269.77 958.414 2269.77 949.782V543.079C2269.77 528.693 2281.43 517.031 2295.82 517.031H2415.43C2429.81 517.031 2441.48 528.693 2441.48 543.079V949.782C2441.48 958.414 2448.47 965.411 2457.1 965.411H2597.73C2606.36 965.411 2613.36 958.414 2613.36 949.782V448.77C2613.36 391.226 2566.71 344.578 2509.16 344.578H2202.08Z" fill="white"/>
<path d="M1702.6 76.4141C1650.42 76.4141 1608.06 118.726 1608.06 170.942C1608.06 223.159 1650.42 265.471 1702.6 265.471C1754.77 265.471 1797.13 223.159 1797.13 170.942C1797.13 118.726 1754.77 76.4141 1702.6 76.4141Z" fill="white"/>
<path d="M167.915 453.426C174.025 447.315 183.935 447.323 190.035 453.444L484.125 748.51C490.233 754.638 500.157 754.638 506.264 748.51L800.348 453.453C806.448 447.332 816.358 447.324 822.469 453.435L889.322 520.288C913.736 544.702 913.736 584.284 889.322 608.698L539.392 958.628C514.979 983.041 475.396 983.041 450.982 958.628L101.053 608.698C76.6386 584.284 76.6386 544.702 101.053 520.288L167.915 453.426Z" fill="white"/>
<path d="M360.48 504.619C354.372 510.747 344.448 510.747 338.341 504.619L238.738 404.686C232.651 398.579 232.66 388.698 238.756 382.601L451.007 170.35C475.421 145.936 515.004 145.936 539.417 170.35L751.677 382.61C757.774 388.706 757.782 398.588 751.696 404.694L652.1 504.619C645.992 510.747 636.069 510.747 629.961 504.619L506.289 380.538C500.182 374.411 490.258 374.411 484.15 380.538L360.48 504.619Z" fill="white"/>
<path d="M1399.76 660.364C1397.52 656.995 1397.44 652.637 1399.54 649.183L1570.51 368.269C1576.85 357.854 1569.35 344.515 1557.16 344.515L1404.64 344.429C1399.18 344.425 1394.15 347.217 1391.31 351.877C1353.3 414.287 1315.76 477.008 1277.16 539.056C1266.09 556.852 1238.63 548.983 1238.63 528.024V179.148C1238.63 170.517 1231.68 163.613 1223.05 163.613H1082.35C1073.72 163.613 1066.75 170.484 1066.75 179.116V950.084C1066.75 958.716 1073.75 965.436 1082.38 965.436H1223C1231.63 965.436 1238.63 958.439 1238.63 949.807V771.735C1238.63 750.753 1266.17 742.922 1277.35 760.677C1319.48 827.597 1364.76 892.68 1408.51 958.547C1411.41 962.907 1416.29 965.528 1421.53 965.528L1573.24 965.527C1585.7 965.527 1593.15 951.646 1586.26 941.258C1524.12 847.611 1461.94 753.989 1399.76 660.364Z" fill="white"/>
</svg>
