<svg width="2709" height="1042" viewBox="0 0 2709 1042" fill="none" xmlns="http://www.w3.org/2000/svg">
<path d="M2013.6 137.618C2022.23 137.618 2029.23 144.615 2029.23 153.247V949.783C2029.23 958.414 2022.23 965.411 2013.6 965.411H1872.98C1864.35 965.411 1857.35 958.414 1857.35 949.783V153.247C1857.35 144.615 1864.35 137.618 1872.98 137.618H2013.6Z" fill="black"/>
<path d="M1772.86 344.578C1781.49 344.578 1788.49 351.575 1788.49 360.206V949.782C1788.49 958.414 1781.49 965.411 1772.86 965.411H1632.24C1623.61 965.411 1616.61 958.414 1616.61 949.782V360.206C1616.61 351.575 1623.61 344.578 1632.24 344.578H1772.86Z" fill="black"/>
<path d="M2202.08 344.578C2144.54 344.578 2097.89 391.226 2097.89 448.77V949.782C2097.89 958.414 2104.88 965.411 2113.52 965.411H2254.14C2262.77 965.411 2269.77 958.414 2269.77 949.782V543.079C2269.77 528.693 2281.43 517.031 2295.82 517.031H2415.43C2429.81 517.031 2441.48 528.693 2441.48 543.079V949.782C2441.48 958.414 2448.47 965.411 2457.1 965.411H2597.73C2606.36 965.411 2613.36 958.414 2613.36 949.782V448.77C2613.36 391.226 2566.71 344.578 2509.16 344.578H2202.08Z" fill="black"/>
<path d="M1702.6 76.4146C1650.42 76.4146 1608.06 118.727 1608.06 170.943C1608.06 223.16 1650.42 265.472 1702.6 265.472C1754.77 265.472 1797.13 223.16 1797.13 170.943C1797.13 118.727 1754.77 76.4146 1702.6 76.4146Z" fill="black"/>
<path d="M167.915 453.424C174.025 447.313 183.935 447.321 190.035 453.442L484.125 748.508C490.233 754.636 500.157 754.636 506.264 748.508L800.348 453.451C806.448 447.33 816.358 447.322 822.469 453.433L889.322 520.286C913.736 544.7 913.736 584.282 889.322 608.696L539.392 958.626C514.979 983.039 475.396 983.039 450.982 958.626L101.053 608.696C76.6387 584.282 76.6387 544.7 101.053 520.286L167.915 453.424Z" fill="black"/>
<path d="M360.48 504.62C354.372 510.748 344.448 510.748 338.341 504.62L238.738 404.687C232.651 398.58 232.66 388.699 238.756 382.602L451.007 170.351C475.421 145.937 515.004 145.937 539.417 170.351L751.677 382.611C757.774 388.707 757.782 398.589 751.696 404.695L652.1 504.62C645.992 510.748 636.069 510.748 629.961 504.62L506.289 380.539C500.182 374.412 490.258 374.412 484.15 380.539L360.48 504.62Z" fill="#FF6521"/>
<path d="M1399.76 660.365C1397.52 656.996 1397.44 652.638 1399.54 649.184L1570.51 368.27C1576.85 357.855 1569.35 344.516 1557.16 344.516L1404.64 344.43C1399.18 344.426 1394.15 347.218 1391.31 351.878C1353.3 414.288 1315.76 477.009 1277.16 539.057C1266.09 556.853 1238.63 548.984 1238.63 528.025V179.149C1238.63 170.518 1231.68 163.614 1223.05 163.614H1082.35C1073.72 163.614 1066.75 170.485 1066.75 179.117V950.085C1066.75 958.717 1073.75 965.437 1082.38 965.437H1223C1231.63 965.437 1238.63 958.44 1238.63 949.808V771.736C1238.63 750.754 1266.17 742.923 1277.35 760.678C1319.48 827.598 1364.76 892.681 1408.51 958.548C1411.41 962.908 1416.29 965.529 1421.53 965.529L1573.24 965.528C1585.7 965.528 1593.15 951.647 1586.26 941.259C1524.12 847.612 1461.94 753.99 1399.76 660.365Z" fill="black"/>
</svg>
