<svg width="2692" height="801" viewBox="0 0 2692 801" fill="none" xmlns="http://www.w3.org/2000/svg">
<path d="M348.504 662.946L506.393 571.789V310.325L279.959 179.594L122.232 270.657L348.504 401.295V662.946Z" fill="white"/>
<path fill-rule="evenodd" clip-rule="evenodd" d="M349.576 94.2185L433.082 45.8197L357.943 2.43815C352.766 -0.550999 346.387 -0.550998 341.21 2.43815L9.29106 194.071C4.1137 197.061 0.924316 202.585 0.924316 208.563V591.83C0.924316 597.808 4.11371 603.332 9.29107 606.321L341.21 797.954C346.387 800.944 352.766 800.944 357.943 797.954L689.862 606.321C695.039 603.332 698.228 597.808 698.228 591.83V504.922L614.561 553.185L349.576 706.174L84.5918 553.185V247.207L349.576 94.2185Z" fill="white"/>
<path d="M541.482 551.296L698.127 460.857V209.055C698.127 203.077 694.937 197.552 689.76 194.563L471.693 68.6621L317.006 157.97L541.482 287.572V551.296Z" fill="white"/>
<path d="M2559.29 603.758V585.477L2565.38 533.682H2560.05C2545.58 582.431 2500.64 598.426 2440.46 598.426C2368.1 598.426 2312.49 567.197 2312.49 481.886V208.434C2356.67 204.625 2400.09 204.625 2444.27 208.434V420.949C2444.27 478.839 2465.6 487.218 2496.83 487.218C2534.15 487.218 2548.62 478.077 2559.29 438.468V208.434C2603.47 204.625 2646.88 204.625 2691.06 208.434V587.001C2691.06 717.252 2620.22 766.001 2471.69 766.001C2433.61 766.001 2384.86 762.955 2338.39 756.861C2336.87 727.155 2340.68 681.452 2348.29 652.507C2387.14 659.363 2424.47 662.41 2461.03 662.41C2505.97 662.41 2559.29 652.507 2559.29 603.758Z" fill="white"/>
<path d="M2112.12 607.57L2105.26 548.157H2099.93C2088.51 594.621 2042.04 612.902 1982.63 612.902C1911.03 612.902 1856.19 580.91 1856.19 498.646C1856.19 389.722 1914.84 366.871 1997.86 366.871C2036.71 366.871 2064.13 369.156 2099.17 373.726V356.207C2099.17 320.407 2076.32 299.841 2000.91 299.841C1971.97 299.841 1934.64 302.888 1888.94 310.505C1885.13 279.275 1885.13 241.19 1888.94 209.96C1946.07 199.296 1992.53 196.249 2042.04 196.249C2166.2 196.249 2230.95 228.241 2230.95 330.309V607.57C2199.72 611.378 2142.59 611.378 2112.12 607.57ZM2099.17 484.935V448.373C2079.37 443.803 2058.04 441.518 2044.33 441.518C2008.53 441.518 1987.96 446.088 1987.96 481.127C1987.96 514.642 2008.53 518.45 2034.43 518.45C2064.89 518.45 2086.22 509.31 2099.17 484.935Z" fill="white"/>
<path d="M1649.86 603.758V58.3779C1681.09 54.5694 1750.41 54.5694 1781.64 58.3779V603.758C1750.41 607.567 1681.09 607.567 1649.86 603.758Z" fill="white"/>
<path d="M1567.36 350.875V442.28C1518.61 446.85 1402.83 446.85 1339.61 443.041V451.42C1339.61 498.646 1363.98 509.31 1431.01 509.31C1473.67 509.31 1506.42 504.739 1549.08 497.122C1552.89 528.352 1552.89 567.961 1549.08 598.429C1493.47 608.331 1450.06 612.902 1396.74 612.902C1281.72 612.902 1207.83 579.386 1207.83 478.08V332.594C1207.83 226.717 1284 196.249 1390.64 196.249C1484.33 196.249 1567.36 233.573 1567.36 350.875ZM1439.39 369.156V349.352C1439.39 305.173 1415.02 299.841 1389.12 299.841C1363.98 299.841 1339.61 305.173 1339.61 348.59V372.965L1384.55 369.156H1439.39Z" fill="white"/>
<path d="M892.62 603.761V203.866C932.228 201.581 971.075 201.581 1010.68 203.866L1018.3 270.896H1023.63C1035.82 218.338 1084.57 196.249 1156.17 196.249C1159.22 227.479 1159.22 278.513 1156.17 308.981C1068.57 308.981 1044.96 326.501 1024.39 381.343V603.761C993.165 607.57 923.85 607.57 892.62 603.761Z" fill="white"/>
</svg>
