<svg width="2692" height="801" viewBox="0 0 2692 801" fill="none" xmlns="http://www.w3.org/2000/svg">
<g clip-path="url(#clip0_2973_24)">
<path d="M348.504 662.946L506.393 571.789V310.325L279.959 179.594L122.232 270.657L348.504 401.295V662.946Z" fill="black"/>
<path fill-rule="evenodd" clip-rule="evenodd" d="M349.576 94.2175L433.082 45.8187L357.943 2.43717C352.766 -0.551975 346.387 -0.551974 341.21 2.43717L9.29106 194.07C4.1137 197.06 0.924316 202.584 0.924316 208.562V591.829C0.924316 597.807 4.11371 603.331 9.29107 606.32L341.21 797.953C346.387 800.943 352.766 800.943 357.943 797.953L689.862 606.32C695.039 603.331 698.228 597.807 698.228 591.829V504.921L614.561 553.184L349.576 706.173L84.5918 553.184V247.206L349.576 94.2175Z" fill="black"/>
<path d="M541.482 551.296L698.127 460.857V209.055C698.127 203.077 694.937 197.552 689.76 194.563L471.693 68.6621L317.006 157.97L541.482 287.572V551.296Z" fill="black"/>
<path d="M2559.29 603.759V585.478L2565.38 533.683H2560.05C2545.58 582.432 2500.64 598.427 2440.46 598.427C2368.1 598.427 2312.49 567.198 2312.49 481.887V208.435C2356.67 204.626 2400.09 204.626 2444.27 208.435V420.95C2444.27 478.84 2465.6 487.219 2496.83 487.219C2534.15 487.219 2548.62 478.078 2559.29 438.469V208.435C2603.47 204.626 2646.88 204.626 2691.06 208.435V587.002C2691.06 717.253 2620.22 766.002 2471.69 766.002C2433.61 766.002 2384.86 762.956 2338.39 756.862C2336.87 727.156 2340.68 681.453 2348.29 652.508C2387.14 659.364 2424.47 662.411 2461.03 662.411C2505.97 662.411 2559.29 652.508 2559.29 603.759Z" fill="black"/>
<path d="M2112.12 607.569L2105.26 548.156H2099.93C2088.51 594.62 2042.04 612.901 1982.63 612.901C1911.03 612.901 1856.19 580.909 1856.19 498.645C1856.19 389.721 1914.84 366.87 1997.86 366.87C2036.71 366.87 2064.13 369.155 2099.17 373.725V356.206C2099.17 320.406 2076.32 299.84 2000.91 299.84C1971.97 299.84 1934.64 302.887 1888.94 310.504C1885.13 279.274 1885.13 241.189 1888.94 209.959C1946.07 199.295 1992.53 196.248 2042.04 196.248C2166.2 196.248 2230.95 228.24 2230.95 330.308V607.569C2199.72 611.377 2142.59 611.377 2112.12 607.569ZM2099.17 484.934V448.372C2079.37 443.802 2058.04 441.517 2044.33 441.517C2008.53 441.517 1987.96 446.087 1987.96 481.126C1987.96 514.641 2008.53 518.449 2034.43 518.449C2064.89 518.449 2086.22 509.309 2099.17 484.934Z" fill="black"/>
<path d="M1649.86 603.758V58.3779C1681.09 54.5694 1750.41 54.5694 1781.64 58.3779V603.758C1750.41 607.567 1681.09 607.567 1649.86 603.758Z" fill="black"/>
<path d="M1567.36 350.874V442.279C1518.61 446.849 1402.83 446.849 1339.61 443.04V451.419C1339.61 498.645 1363.98 509.309 1431.01 509.309C1473.67 509.309 1506.42 504.738 1549.08 497.121C1552.89 528.351 1552.89 567.96 1549.08 598.428C1493.47 608.33 1450.06 612.901 1396.74 612.901C1281.72 612.901 1207.83 579.385 1207.83 478.079V332.593C1207.83 226.716 1284 196.248 1390.64 196.248C1484.33 196.248 1567.36 233.572 1567.36 350.874ZM1439.39 369.155V349.351C1439.39 305.172 1415.02 299.84 1389.12 299.84C1363.98 299.84 1339.61 305.172 1339.61 348.589V372.964L1384.55 369.155H1439.39Z" fill="black"/>
<path d="M892.62 603.76V203.865C932.228 201.58 971.075 201.58 1010.68 203.865L1018.3 270.895H1023.63C1035.82 218.337 1084.57 196.248 1156.17 196.248C1159.22 227.478 1159.22 278.512 1156.17 308.98C1068.57 308.98 1044.96 326.5 1024.39 381.342V603.76C993.165 607.569 923.85 607.569 892.62 603.76Z" fill="black"/>
</g>
<defs>
<clipPath id="clip0_2973_24">
<rect width="2692" height="801" fill="white"/>
</clipPath>
</defs>
</svg>
