<svg width="118" height="34" viewBox="0 0 118 34" fill="none" xmlns="http://www.w3.org/2000/svg">
<path fill-rule="evenodd" clip-rule="evenodd" d="M25.4 25.8561L32.539 33.0101H11.986V12.4361L19.577 20.0361C20.5479 19.0913 21.2172 17.8801 21.5005 16.5553C21.7838 15.2306 21.6684 13.8515 21.1689 12.5923C20.6693 11.333 19.808 10.2499 18.6936 9.47965C17.5792 8.70936 16.2616 8.28639 14.907 8.26409C13.1219 8.28443 11.416 9.00367 10.1551 10.2675C8.89433 11.5313 8.17913 13.239 8.16302 15.0241V32.9961H2.07904e-05V15.1041C-0.00657329 11.1297 1.55565 7.31334 4.34717 4.48437C7.13869 1.6554 10.9339 0.0424613 14.908 -0.00390625C17.883 0.0442683 20.778 0.966783 23.2323 2.64869C25.6866 4.3306 27.5918 6.69754 28.7104 9.45458C29.829 12.2116 30.1115 15.2369 29.5229 18.1534C28.9343 21.0699 27.5004 23.7487 25.4 25.8561Z" fill="white"/>
<path d="M42.7479 12.5193L42.1789 15.7733C41.8151 15.6698 41.4407 15.6084 41.0629 15.5903C40.7321 15.5731 40.4021 15.6353 40.1002 15.7717C39.7984 15.9081 39.5336 16.1147 39.3279 16.3743C38.8371 17.087 38.5046 17.8965 38.3529 18.7483V25.2723H34.9829V12.6853H37.8879L38.1949 15.1303C38.4337 14.3295 38.8908 13.611 39.5149 13.0553C40.0558 12.5786 40.7529 12.3171 41.4739 12.3203C41.9055 12.3297 42.334 12.3967 42.7479 12.5193Z" fill="white"/>
<path d="M53.6848 20.0078H45.7988C45.8068 20.9014 46.137 21.7621 46.7288 22.4318C47.3012 22.9303 48.046 23.1851 48.8038 23.1418C49.3229 23.1453 49.8385 23.0569 50.3268 22.8808C50.8737 22.6687 51.3922 22.3899 51.8708 22.0508L53.2708 23.9508C51.9308 25.065 50.2405 25.6706 48.4978 25.6608C47.6531 25.7144 46.8068 25.5828 46.0183 25.2752C45.2298 24.9675 44.518 24.4913 43.9328 23.8798C42.8141 22.5305 42.2503 20.8063 42.3558 19.0568C42.336 17.8684 42.5667 16.6891 43.0328 15.5958C43.4465 14.6217 44.1305 13.7864 45.0038 13.1888C46.1301 12.496 47.4554 12.199 48.7696 12.3448C50.0838 12.4906 51.3118 13.071 52.2588 13.9938C53.3277 15.3216 53.8661 16.9988 53.7698 18.7008C53.7678 18.8578 53.7308 19.2938 53.6848 20.0078ZM50.4058 17.7498C50.4058 15.6611 49.6531 14.6164 48.1478 14.6158C47.8342 14.6019 47.5219 14.665 47.2383 14.7995C46.9547 14.9341 46.7084 15.1361 46.5208 15.3878C46.0622 16.1373 45.8199 16.9991 45.8208 17.8778H50.4068L50.4058 17.7498Z" fill="white"/>
<path d="M56.3768 24.9117C55.7653 24.1911 55.4587 23.2607 55.5218 22.3177V7.41172L58.8998 7.01172V22.2277C58.8998 22.7937 59.1318 23.0787 59.5888 23.0787C59.8186 23.0848 60.0465 23.0351 60.2528 22.9337L60.9418 25.3917C60.2606 25.6844 59.5251 25.8293 58.7838 25.8167C58.3413 25.8453 57.8979 25.7794 57.4829 25.6234C57.0678 25.4673 56.6908 25.2247 56.3768 24.9117Z" fill="white"/>
<path d="M71.6908 14.0795C72.8216 15.4554 73.3909 17.2077 73.2848 18.9855C73.309 20.1919 73.0608 21.3882 72.5588 22.4855C72.1133 23.4534 71.3913 24.268 70.4838 24.8265C69.5095 25.3969 68.3955 25.6843 67.2668 25.6565C66.4443 25.7007 65.622 25.5651 64.8573 25.2591C64.0925 24.953 63.4037 24.4839 62.8388 23.8845C61.7056 22.5119 61.1339 20.7613 61.2388 18.9845C61.2092 17.7792 61.4519 16.5829 61.9488 15.4845C62.3962 14.5177 63.1177 13.7036 64.0238 13.1435C65.0061 12.5712 66.1284 12.2838 67.2648 12.3135C68.0867 12.2676 68.9086 12.4019 69.6731 12.7069C70.4377 13.012 71.1263 13.4804 71.6908 14.0795ZM65.3618 15.8395C64.8769 16.8138 64.6605 17.8997 64.7348 18.9855C64.6605 20.0712 64.8769 21.1572 65.3618 22.1315C65.5691 22.4423 65.85 22.6972 66.1794 22.8734C66.5088 23.0497 66.8767 23.1419 67.2503 23.1419C67.6239 23.1419 67.9918 23.0497 68.3212 22.8734C68.6507 22.6972 68.9315 22.4423 69.1388 22.1315C69.6239 21.1571 69.8417 20.0715 69.7698 18.9855C69.8464 17.9006 69.6331 16.8148 69.1518 15.8395C68.9613 15.5158 68.6857 15.2505 68.3549 15.0726C68.0241 14.8947 67.6509 14.811 67.2758 14.8305C66.8954 14.8099 66.5165 14.8928 66.1794 15.0705C65.8424 15.2482 65.5598 15.5139 65.3618 15.8395Z" fill="white"/>
<path d="M84.9238 22.866C85.0909 23.1166 85.3431 23.2981 85.6338 23.377L84.9238 25.61C84.2853 25.5799 83.6627 25.4008 83.1058 25.087C82.6123 24.7723 82.2337 24.3065 82.0268 23.759C81.62 24.3799 81.0566 24.8826 80.3935 25.2162C79.7303 25.5498 78.9909 25.7025 78.2498 25.659C77.7059 25.6874 77.1617 25.6061 76.6498 25.4201C76.1379 25.234 75.6686 24.947 75.2698 24.576C74.9007 24.2093 74.6122 23.7696 74.4228 23.2851C74.2334 22.8005 74.1472 22.2817 74.1698 21.762C74.1388 21.1525 74.2596 20.5449 74.5215 19.9937C74.7833 19.4426 75.1778 18.965 75.6698 18.604C76.9539 17.7997 78.4576 17.4178 79.9698 17.512H81.4178V16.894C81.4504 16.6032 81.4205 16.3089 81.3304 16.0306C81.2402 15.7522 81.0917 15.4964 80.8948 15.28C80.3835 14.9327 79.7672 14.7742 79.1518 14.832C78.0173 14.8789 76.8971 15.1029 75.8318 15.496L75.0718 13.238C76.5515 12.6372 78.1318 12.3229 79.7288 12.312C81.0792 12.1992 82.4235 12.5912 83.5018 13.412C83.9268 13.8424 84.2549 14.3587 84.4639 14.9263C84.673 15.4939 84.7582 16.0997 84.7138 16.703V21.783C84.6849 22.1563 84.7575 22.5305 84.9238 22.866ZM81.4078 21.822V19.438H80.2918C78.4685 19.438 77.5581 20.1186 77.5608 21.48C77.5322 21.9483 77.6803 22.4104 77.9758 22.775C78.1306 22.934 78.318 23.0576 78.5252 23.1372C78.7324 23.2168 78.9543 23.2505 79.1758 23.236C79.6429 23.2331 80.0999 23.099 80.4945 22.849C80.8892 22.599 81.2056 22.2431 81.4078 21.822Z" fill="white"/>
<path d="M98.462 7.41172V25.4387H95.494L95.303 23.8567C94.9265 24.472 94.3954 24.9779 93.7625 25.3241C93.1297 25.6702 92.4172 25.8446 91.696 25.8297C90.9949 25.861 90.2978 25.7078 89.6743 25.3854C89.0509 25.0631 88.5229 24.5829 88.143 23.9927C87.2551 22.4816 86.8309 20.7429 86.923 18.9927C86.9007 17.7823 87.1137 16.579 87.55 15.4497C87.914 14.4936 88.5344 13.6563 89.343 13.0297C90.1159 12.4476 91.0606 12.1394 92.028 12.1537C92.5983 12.1486 93.1637 12.259 93.6901 12.4783C94.2165 12.6976 94.6931 13.0212 95.091 13.4297V7.01172L98.462 7.41172ZM94 22.8787C94.4388 22.5611 94.8101 22.1593 95.092 21.6967V15.9467C94.8099 15.587 94.4687 15.278 94.083 15.0327C93.7242 14.8283 93.3169 14.7246 92.904 14.7327C92.5353 14.7268 92.1719 14.8209 91.8525 15.0051C91.533 15.1893 91.2695 15.4566 91.09 15.7787C90.5884 16.7791 90.3623 17.895 90.435 19.0117C90.3517 20.1378 90.5529 21.2667 91.02 22.2947C91.1795 22.5948 91.4191 22.8447 91.7122 23.0167C92.0052 23.1886 92.3403 23.2759 92.68 23.2687C93.1497 23.2737 93.6099 23.1364 94 22.8747V22.8787Z" fill="white"/>
<path d="M102.104 24.9155C101.494 24.194 101.188 23.2642 101.249 22.3215V7.40653L104.623 7.01953V22.2275C104.623 22.7935 104.851 23.0785 105.312 23.0785C105.542 23.0842 105.769 23.0344 105.976 22.9335L106.665 25.3915C105.982 25.6836 105.245 25.8284 104.503 25.8165C104.062 25.844 103.62 25.7779 103.207 25.6226C102.794 25.4673 102.418 25.2264 102.104 24.9155Z" fill="white"/>
<path d="M113.937 25.4724C113.53 26.9182 112.699 28.209 111.551 29.1784C110.27 30.1172 108.731 30.6389 107.143 30.6724L106.786 28.2484C107.726 28.1796 108.634 27.8834 109.434 27.3854C110.069 26.8775 110.55 26.2035 110.824 25.4384H109.664L105.744 12.8594H109.33L111.845 23.2594L114.51 12.8594H118L113.937 25.4724Z" fill="white"/>
</svg>
